<?xml version="1.0"?>
<!DOCTYPE svg PUBLIC "-//W3C//DTD SVG 1.1//EN" "http://www.w3.org/Graphics/SVG/1.1/DTD/svg11.dtd">
<svg width="65.28mm" height="13.280000000000001mm" viewBox="0 0 65.28 13.280000000000001" xmlns="http://www.w3.org/2000/svg" version="1.1">
<g id="Fillet002" transform="translate(0.640000,0.640000) scale(1,-1)">
<circle cx="2.5" cy="-2.0" r="1.25" stroke="#191919" stroke-width="0.7 px" style="stroke-width:0.7;stroke-miterlimit:4;stroke-dasharray:none;stroke-linecap:square;fill:#727980"/>
<path id="Fillet002_f0001"  d="M 49.5 -1.0 L 49.5 -0.6 L 49.5 -0.6 L 49.5 -1.0 L 49.5 -1.0000000000000002 Z " stroke="#191919" stroke-width="0.7 px" style="stroke-width:0.7;stroke-miterlimit:4;stroke-dasharray:none;stroke-linecap:square;fill:#727980;fill-opacity:1.0;fill-rule: evenodd"/>
<path id="Fillet002_f0002"  d="M 49.5 -1.0 A 1 1 0 0 1 50.5 -2L 50.5 -2.0 A 1 1 0 0 0 49.5 -1L 49.5 -1.0 Z " stroke="#191919" stroke-width="0.7 px" style="stroke-width:0.7;stroke-miterlimit:4;stroke-dasharray:none;stroke-linecap:square;fill:#727980;fill-opacity:1.0;fill-rule: evenodd"/>
<path id="Fillet002_f0003"  d="M 48.9 0.0 A 0.6 0.6 0 0 0 49.5 -0.6L 49.5 -0.5999999999999999 A 0.6 0.6 0 0 1 48.9 1.11022e-16L 48.9 0.0 Z " stroke="#191919" stroke-width="0.7 px" style="stroke-width:0.7;stroke-miterlimit:4;stroke-dasharray:none;stroke-linecap:square;fill:#727980;fill-opacity:1.0;fill-rule: evenodd"/>
<path id="Fillet002_f0004"  d="M 58.61676030258086 -2.0 L 50.5 -2.0 L 50.5 -2.0 L 58.61676030258087 -2.0 Q 58.61676030258087 -2.0 58.616760302580865 -2.0 Z " stroke="#191919" stroke-width="0.7 px" style="stroke-width:0.7;stroke-miterlimit:4;stroke-dasharray:none;stroke-linecap:square;fill:#727980;fill-opacity:1.0;fill-rule: evenodd"/>
<path id="Fillet002_f0005"  d="M 36.1 0.0 L 48.9 0.0 L 48.9 0.0 L 36.1 0.0 L 36.1 1.1e-16 Z " stroke="#191919" stroke-width="0.7 px" style="stroke-width:0.7;stroke-miterlimit:4;stroke-dasharray:none;stroke-linecap:square;fill:#727980;fill-opacity:1.0;fill-rule: evenodd"/>
<path id="Fillet002_f0006"  d="M 58.61676030258087 -2.0 Q 59.270370973915455 -1.9694612943799354 59.54378511346782 -1.375 Q 59.54378511346783 -1.375 59.54378511346783 -1.3749999999999998 Q 59.27037097391542 -1.9694612943799794 58.61676030258088 -2.0 Q 58.61676030258087 -2.0 58.616760302580865 -2.0 Z " stroke="#191919" stroke-width="0.7 px" style="stroke-width:0.7;stroke-miterlimit:4;stroke-dasharray:none;stroke-linecap:square;fill:#727980;fill-opacity:1.0;fill-rule: evenodd"/>
<path id="Fillet002_f0007"  d="M 35.5 -0.6 A 0.6 0.6 0 0 0 36.1 1.11022e-16L 36.1 1.1e-16 A 0.6 0.6 0 0 1 35.5 -0.6L 35.5 -0.6 Z " stroke="#191919" stroke-width="0.7 px" style="stroke-width:0.7;stroke-miterlimit:4;stroke-dasharray:none;stroke-linecap:square;fill:#727980;fill-opacity:1.0;fill-rule: evenodd"/>
<path id="Fillet002_f0008"  d="M 59.54378511346783 -1.375 A 0.6 0.6 0 0 0 60.1 -1L 60.1 -0.9999999999999999 A 0.6 0.6 0 0 1 59.5438 -1.375Q 59.54378511346783 -1.375 59.54378511346783 -1.375 Z " stroke="#191919" stroke-width="0.7 px" style="stroke-width:0.7;stroke-miterlimit:4;stroke-dasharray:none;stroke-linecap:square;fill:#727980;fill-opacity:1.0;fill-rule: evenodd"/>
<path id="Fillet002_f0009"  d="M 35.5 -0.9 L 35.5 -0.6 L 35.5 -0.6 L 35.5 -0.9 L 35.5 -0.9000000000000001 Z " stroke="#191919" stroke-width="0.7 px" style="stroke-width:0.7;stroke-miterlimit:4;stroke-dasharray:none;stroke-linecap:square;fill:#727980;fill-opacity:1.0;fill-rule: evenodd"/>
<path id="Fillet002_f0010"  d="M 63.4 -1.0 L 60.1 -1.0 L 60.1 -0.9999999999999999 L 63.4 -1.0 L 63.4 -1.0 Z " stroke="#191919" stroke-width="0.7 px" style="stroke-width:0.7;stroke-miterlimit:4;stroke-dasharray:none;stroke-linecap:square;fill:#727980;fill-opacity:1.0;fill-rule: evenodd"/>
<path id="Fillet002_f0011"  d="M 34.9 -1.5 A 0.6 0.6 0 0 1 35.5 -0.9L 35.5 -0.9000000000000001 A 0.6 0.6 0 0 0 34.9 -1.5L 34.9 -1.5 Z " stroke="#191919" stroke-width="0.7 px" style="stroke-width:0.7;stroke-miterlimit:4;stroke-dasharray:none;stroke-linecap:square;fill:#727980;fill-opacity:1.0;fill-rule: evenodd"/>
<path id="Fillet002_f0012"  d="M 63.4 -1.0 A 0.6 0.6 0 0 0 64 -1.6L 64.0 -1.5999999999999999 A 0.6 0.6 0 0 1 63.4 -1L 63.4 -1.0 Z " stroke="#191919" stroke-width="0.7 px" style="stroke-width:0.7;stroke-miterlimit:4;stroke-dasharray:none;stroke-linecap:square;fill:#727980;fill-opacity:1.0;fill-rule: evenodd"/>
<path id="Fillet002_f0013"  d="M 29.1 -1.5 L 34.9 -1.5 L 34.9 -1.5 L 29.1 -1.5 L 29.1 -1.5 Z " stroke="#191919" stroke-width="0.7 px" style="stroke-width:0.7;stroke-miterlimit:4;stroke-dasharray:none;stroke-linecap:square;fill:#727980;fill-opacity:1.0;fill-rule: evenodd"/>
<path id="Fillet002_f0014"  d="M 64.0 -5.4 L 64.0 -1.6 L 64.0 -1.5999999999999999 L 64.0 -5.4 L 64.0 -5.4 Z " stroke="#191919" stroke-width="0.7 px" style="stroke-width:0.7;stroke-miterlimit:4;stroke-dasharray:none;stroke-linecap:square;fill:#727980;fill-opacity:1.0;fill-rule: evenodd"/>
<path id="Fillet002_f0015"  d="M 28.5 -0.9 A 0.6 0.6 0 0 1 29.1 -1.5L 29.1 -1.5 A 0.6 0.6 0 0 0 28.5 -0.9L 28.5 -0.9 Z " stroke="#191919" stroke-width="0.7 px" style="stroke-width:0.7;stroke-miterlimit:4;stroke-dasharray:none;stroke-linecap:square;fill:#727980;fill-opacity:1.0;fill-rule: evenodd"/>
<path id="Fillet002_f0016"  d="M 64.0 -5.4 A 0.6 0.6 0 0 0 63.4 -6L 63.4 -6.0 A 0.6 0.6 0 0 1 64 -5.4L 64.0 -5.4 Z " stroke="#191919" stroke-width="0.7 px" style="stroke-width:0.7;stroke-miterlimit:4;stroke-dasharray:none;stroke-linecap:square;fill:#727980;fill-opacity:1.0;fill-rule: evenodd"/>
<path id="Fillet002_f0017"  d="M 28.5 -0.6 L 28.5 -0.9 L 28.5 -0.9 L 28.5 -0.6 L 28.5 -0.5999999999999999 Z " stroke="#191919" stroke-width="0.7 px" style="stroke-width:0.7;stroke-miterlimit:4;stroke-dasharray:none;stroke-linecap:square;fill:#727980;fill-opacity:1.0;fill-rule: evenodd"/>
<path id="Fillet002_f0018"  d="M 60.1 -6.0 L 63.4 -6.0 L 63.4 -6.0 L 60.1 -6.0 L 60.1 -6.0 Z " stroke="#191919" stroke-width="0.7 px" style="stroke-width:0.7;stroke-miterlimit:4;stroke-dasharray:none;stroke-linecap:square;fill:#727980;fill-opacity:1.0;fill-rule: evenodd"/>
<path id="Fillet002_f0019"  d="M 27.9 0.0 A 0.6 0.6 0 0 0 28.5 -0.6L 28.5 -0.5999999999999999 A 0.6 0.6 0 0 1 27.9 1.11022e-16L 27.9 0.0 Z " stroke="#191919" stroke-width="0.7 px" style="stroke-width:0.7;stroke-miterlimit:4;stroke-dasharray:none;stroke-linecap:square;fill:#727980;fill-opacity:1.0;fill-rule: evenodd"/>
<path id="Fillet002_f0020"  d="M 60.099999999999994 -6.0 A 0.6 0.6 0 0 1 60.1 -6Q 59.54378511346783 -5.625 59.54378511346783 -5.625 A 0.6 0.6 0 0 0 59.5438 -5.625L 60.1 -6.0 Z " stroke="#191919" stroke-width="0.7 px" style="stroke-width:0.7;stroke-miterlimit:4;stroke-dasharray:none;stroke-linecap:square;fill:#727980;fill-opacity:1.0;fill-rule: evenodd"/>
<path id="Fillet002_f0021"  d="M 24.1 0.0 L 27.9 0.0 L 27.9 0.0 L 24.1 0.0 L 24.1 1.1e-16 Z " stroke="#191919" stroke-width="0.7 px" style="stroke-width:0.7;stroke-miterlimit:4;stroke-dasharray:none;stroke-linecap:square;fill:#727980;fill-opacity:1.0;fill-rule: evenodd"/>
<path id="Fillet002_f0022"  d="M 59.54378511346783 -5.625 Q 59.27037097391525 -5.030538705619907 58.61676030258088 -5.0 Q 58.61676030258087 -5.0 58.61676030258087 -5.0 Q 59.27037097391526 -5.0305387056199 59.543785113467834 -5.625 Q 59.54378511346783 -5.625 59.54378511346783 -5.625 Z " stroke="#191919" stroke-width="0.7 px" style="stroke-width:0.7;stroke-miterlimit:4;stroke-dasharray:none;stroke-linecap:square;fill:#727980;fill-opacity:1.0;fill-rule: evenodd"/>
<path id="Fillet002_f0023"  d="M 23.5 -0.6 A 0.6 0.6 0 0 0 24.1 1.11022e-16L 24.1 1.1e-16 A 0.6 0.6 0 0 1 23.5 -0.6L 23.5 -0.6 Z " stroke="#191919" stroke-width="0.7 px" style="stroke-width:0.7;stroke-miterlimit:4;stroke-dasharray:none;stroke-linecap:square;fill:#727980;fill-opacity:1.0;fill-rule: evenodd"/>
<path id="Fillet002_f0024"  d="M 50.5 -5.0 L 58.616760302580865 -5.0 Q 58.61676030258087 -5.0 58.61676030258087 -5.0 L 50.5 -5.0 L 50.5 -5.0 Z " stroke="#191919" stroke-width="0.7 px" style="stroke-width:0.7;stroke-miterlimit:4;stroke-dasharray:none;stroke-linecap:square;fill:#727980;fill-opacity:1.0;fill-rule: evenodd"/>
<path id="Fillet002_f0025"  d="M 23.5 -0.9 L 23.5 -0.6 L 23.5 -0.6 L 23.5 -0.9 L 23.5 -0.9000000000000001 Z " stroke="#191919" stroke-width="0.7 px" style="stroke-width:0.7;stroke-miterlimit:4;stroke-dasharray:none;stroke-linecap:square;fill:#727980;fill-opacity:1.0;fill-rule: evenodd"/>
<path id="Fillet002_f0026"  d="M 50.5 -5.0 A 1 1 0 0 1 49.5 -6L 49.5 -6.0 A 1 1 0 0 0 50.5 -5L 50.5 -5.0 Z " stroke="#191919" stroke-width="0.7 px" style="stroke-width:0.7;stroke-miterlimit:4;stroke-dasharray:none;stroke-linecap:square;fill:#727980;fill-opacity:1.0;fill-rule: evenodd"/>
<path id="Fillet002_f0027"  d="M 22.9 -1.5 A 0.6 0.6 0 0 1 23.5 -0.9L 23.5 -0.9000000000000001 A 0.6 0.6 0 0 0 22.9 -1.5L 22.9 -1.5 Z " stroke="#191919" stroke-width="0.7 px" style="stroke-width:0.7;stroke-miterlimit:4;stroke-dasharray:none;stroke-linecap:square;fill:#727980;fill-opacity:1.0;fill-rule: evenodd"/>
<path id="Fillet002_f0028"  d="M 49.5 -9.374095393649501 L 49.5 -6.0 L 49.5 -6.0 L 49.5 -9.374095393649501 L 49.5 -9.374095393649501 Z " stroke="#191919" stroke-width="0.7 px" style="stroke-width:0.7;stroke-miterlimit:4;stroke-dasharray:none;stroke-linecap:square;fill:#727980;fill-opacity:1.0;fill-rule: evenodd"/>
<path id="Fillet002_f0029"  d="M 21.8 -1.5 L 22.9 -1.5 L 22.9 -1.5 L 21.8 -1.5 L 21.8 -1.4999999999999998 Z " stroke="#191919" stroke-width="0.7 px" style="stroke-width:0.7;stroke-miterlimit:4;stroke-dasharray:none;stroke-linecap:square;fill:#727980;fill-opacity:1.0;fill-rule: evenodd"/>
<path id="Fillet002_f0030"  d="M 49.5 -9.374095393649501 A 0.6 0.6 0 0 0 49.2683 -9.84778L 49.26827064599023 -9.847779604175816 A 0.6 0.6 0 0 1 49.5 -9.3741L 49.5 -9.374095393649501 Z " stroke="#191919" stroke-width="0.7 px" style="stroke-width:0.7;stroke-miterlimit:4;stroke-dasharray:none;stroke-linecap:square;fill:#727980;fill-opacity:1.0;fill-rule: evenodd"/>
<path id="Fillet002_f0031"  d="M 21.8 -1.5 A 0.8 0.8 0 0 1 21 -2.3L 21.0 -2.3 A 0.8 0.8 0 0 0 21.8 -1.5L 21.8 -1.4999999999999998 Z " stroke="#191919" stroke-width="0.7 px" style="stroke-width:0.7;stroke-miterlimit:4;stroke-dasharray:none;stroke-linecap:square;fill:#727980;fill-opacity:1.0;fill-rule: evenodd"/>
<path id="Fillet002_f0032"  d="M 49.26827064599023 -9.847779604175818 L 46.66247234381922 -11.873684210526317 L 46.66247234381922 -11.873684210526315 L 49.26827064599023 -9.847779604175816 L 49.26827064599023 -9.847779604175816 Z " stroke="#191919" stroke-width="0.7 px" style="stroke-width:0.7;stroke-miterlimit:4;stroke-dasharray:none;stroke-linecap:square;fill:#727980;fill-opacity:1.0;fill-rule: evenodd"/>
<path id="Fillet002_f0033"  d="M 21.0 -2.38831560301929 L 21.0 -2.3 L 21.0 -2.3 L 21.0 -2.38831560301929 L 21.0 -2.3883156030192896 Z " stroke="#191919" stroke-width="0.7 px" style="stroke-width:0.7;stroke-miterlimit:4;stroke-dasharray:none;stroke-linecap:square;fill:#727980;fill-opacity:1.0;fill-rule: evenodd"/>
<path id="Fillet002_f0034"  d="M 46.66247234381922 -11.873684210526315 A 0.6 0.6 0 0 0 46.2942 -12L 46.29420169782899 -12.0 A 0.6 0.6 0 0 1 46.6625 -11.8737L 46.66247234381922 -11.873684210526315 Z " stroke="#191919" stroke-width="0.7 px" style="stroke-width:0.7;stroke-miterlimit:4;stroke-dasharray:none;stroke-linecap:square;fill:#727980;fill-opacity:1.0;fill-rule: evenodd"/>
<path id="Fillet002_f0035"  d="M 21.0 -2.38831560301929 A 0.8 0.8 0 0 1 21.0471 -2.65865L 21.04705882352941 -2.658647962856374 A 0.8 0.8 0 0 0 21 -2.38832L 21.0 -2.3883156030192896 Z " stroke="#191919" stroke-width="0.7 px" style="stroke-width:0.7;stroke-miterlimit:4;stroke-dasharray:none;stroke-linecap:square;fill:#727980;fill-opacity:1.0;fill-rule: evenodd"/>
<path id="Fillet002_f0036"  d="M 46.29420169782899 -12.0 L 36.1 -12.0 L 36.1 -12.0 L 46.29420169782899 -12.0 L 46.29420169782899 -12.0 Z " stroke="#191919" stroke-width="0.7 px" style="stroke-width:0.7;stroke-miterlimit:4;stroke-dasharray:none;stroke-linecap:square;fill:#727980;fill-opacity:1.0;fill-rule: evenodd"/>
<path id="Fillet002_f0037"  d="M 21.04705882352941 -2.6586479628563735 A 1.75 1.75 0 1 0 17.7529 -2.65865L 17.75294117647059 -2.658647962856381 A 1.75 1.75 0 1 1 21.0471 -2.65865L 21.04705882352941 -2.658647962856374 Z " stroke="#191919" stroke-width="0.7 px" style="stroke-width:0.7;stroke-miterlimit:4;stroke-dasharray:none;stroke-linecap:square;fill:#727980;fill-opacity:1.0;fill-rule: evenodd"/>
<path id="Fillet002_f0038"  d="M 35.5 -11.4 A 0.6 0.6 0 0 1 36.1 -12L 36.1 -12.0 A 0.6 0.6 0 0 0 35.5 -11.4L 35.5 -11.4 Z " stroke="#191919" stroke-width="0.7 px" style="stroke-width:0.7;stroke-miterlimit:4;stroke-dasharray:none;stroke-linecap:square;fill:#727980;fill-opacity:1.0;fill-rule: evenodd"/>
<path id="Fillet002_f0039"  d="M 17.8 -2.388315603019299 A 0.8 0.8 0 0 0 17.7529 -2.65865L 17.75294117647059 -2.658647962856381 A 0.8 0.8 0 0 1 17.8 -2.38832L 17.8 -2.388315603019299 Z " stroke="#191919" stroke-width="0.7 px" style="stroke-width:0.7;stroke-miterlimit:4;stroke-dasharray:none;stroke-linecap:square;fill:#727980;fill-opacity:1.0;fill-rule: evenodd"/>
<path id="Fillet002_f0040"  d="M 35.5 -11.4 L 35.5 -11.1 L 35.5 -11.1 L 35.5 -11.4 L 35.5 -11.4 Z " stroke="#191919" stroke-width="0.7 px" style="stroke-width:0.7;stroke-miterlimit:4;stroke-dasharray:none;stroke-linecap:square;fill:#727980;fill-opacity:1.0;fill-rule: evenodd"/>
<path id="Fillet002_f0041"  d="M 17.8 -2.3 L 17.8 -2.3883156030193 L 17.8 -2.388315603019299 L 17.8 -2.3 L 17.8 -2.3 Z " stroke="#191919" stroke-width="0.7 px" style="stroke-width:0.7;stroke-miterlimit:4;stroke-dasharray:none;stroke-linecap:square;fill:#727980;fill-opacity:1.0;fill-rule: evenodd"/>
<path id="Fillet002_f0042"  d="M 34.9 -10.5 A 0.6 0.6 0 0 0 35.5 -11.1L 35.5 -11.1 A 0.6 0.6 0 0 1 34.9 -10.5L 34.9 -10.5 Z " stroke="#191919" stroke-width="0.7 px" style="stroke-width:0.7;stroke-miterlimit:4;stroke-dasharray:none;stroke-linecap:square;fill:#727980;fill-opacity:1.0;fill-rule: evenodd"/>
<path id="Fillet002_f0043"  d="M 17.8 -2.3 A 0.8 0.8 0 0 1 17 -1.5L 17.0 -1.5 A 0.8 0.8 0 0 0 17.8 -2.3L 17.8 -2.3 Z " stroke="#191919" stroke-width="0.7 px" style="stroke-width:0.7;stroke-miterlimit:4;stroke-dasharray:none;stroke-linecap:square;fill:#727980;fill-opacity:1.0;fill-rule: evenodd"/>
<path id="Fillet002_f0044"  d="M 34.9 -10.5 L 34.8 -10.5 L 34.8 -10.5 L 34.9 -10.5 L 34.9 -10.5 Z " stroke="#191919" stroke-width="0.7 px" style="stroke-width:0.7;stroke-miterlimit:4;stroke-dasharray:none;stroke-linecap:square;fill:#727980;fill-opacity:1.0;fill-rule: evenodd"/>
<path id="Fillet002_f0045"  d="M 16.900000000000002 -1.5 L 17.0 -1.5 L 17.0 -1.4999999999999998 L 16.900000000000002 -1.5 L 16.900000000000002 -1.5 Z " stroke="#191919" stroke-width="0.7 px" style="stroke-width:0.7;stroke-miterlimit:4;stroke-dasharray:none;stroke-linecap:square;fill:#727980;fill-opacity:1.0;fill-rule: evenodd"/>
<path id="Fillet002_f0046"  d="M 34.0 -9.7 A 0.8 0.8 0 0 1 34.8 -10.5L 34.8 -10.5 A 0.8 0.8 0 0 0 34 -9.7L 34.0 -9.7 Z " stroke="#191919" stroke-width="0.7 px" style="stroke-width:0.7;stroke-miterlimit:4;stroke-dasharray:none;stroke-linecap:square;fill:#727980;fill-opacity:1.0;fill-rule: evenodd"/>
<path id="Fillet002_f0047"  d="M 16.900000000000002 -1.5 A 0.6 0.6 0 0 0 16.3 -0.9L 16.3 -0.9 A 0.6 0.6 0 0 1 16.9 -1.5L 16.900000000000002 -1.5 Z " stroke="#191919" stroke-width="0.7 px" style="stroke-width:0.7;stroke-miterlimit:4;stroke-dasharray:none;stroke-linecap:square;fill:#727980;fill-opacity:1.0;fill-rule: evenodd"/>
<path id="Fillet002_f0048"  d="M 34.0 -9.7 L 34.0 -9.611684396980708 L 34.0 -9.611684396980708 L 34.0 -9.7 L 34.0 -9.7 Z " stroke="#191919" stroke-width="0.7 px" style="stroke-width:0.7;stroke-miterlimit:4;stroke-dasharray:none;stroke-linecap:square;fill:#727980;fill-opacity:1.0;fill-rule: evenodd"/>
<path id="Fillet002_f0049"  d="M 16.3 -0.6 L 16.3 -0.9 L 16.3 -0.9 L 16.3 -0.6 L 16.3 -0.5999999999999999 Z " stroke="#191919" stroke-width="0.7 px" style="stroke-width:0.7;stroke-miterlimit:4;stroke-dasharray:none;stroke-linecap:square;fill:#727980;fill-opacity:1.0;fill-rule: evenodd"/>
<path id="Fillet002_f0050"  d="M 34.04705882352941 -9.341352037143624 A 0.8 0.8 0 0 1 34 -9.61168L 34.0 -9.611684396980708 A 0.8 0.8 0 0 0 34.0471 -9.34135L 34.04705882352941 -9.341352037143624 Z " stroke="#191919" stroke-width="0.7 px" style="stroke-width:0.7;stroke-miterlimit:4;stroke-dasharray:none;stroke-linecap:square;fill:#727980;fill-opacity:1.0;fill-rule: evenodd"/>
<path id="Fillet002_f0051"  d="M 16.3 -0.6 A 0.6 0.6 0 0 1 15.7 1.11022e-16L 15.700000000000001 0.0 A 0.6 0.6 0 0 0 16.3 -0.6L 16.3 -0.5999999999999999 Z " stroke="#191919" stroke-width="0.7 px" style="stroke-width:0.7;stroke-miterlimit:4;stroke-dasharray:none;stroke-linecap:square;fill:#727980;fill-opacity:1.0;fill-rule: evenodd"/>
<path id="Fillet002_f0052"  d="M 30.75294117647059 -9.341352037143624 A 1.75 1.75 0 1 0 34.0471 -9.34135L 34.04705882352941 -9.341352037143624 A 1.75 1.75 0 1 1 30.7529 -9.34135L 30.75294117647059 -9.341352037143622 Z " stroke="#191919" stroke-width="0.7 px" style="stroke-width:0.7;stroke-miterlimit:4;stroke-dasharray:none;stroke-linecap:square;fill:#727980;fill-opacity:1.0;fill-rule: evenodd"/>
<path id="Fillet002_f0053"  d="M 0.5999999999999996 0.0 L 15.700000000000001 0.0 L 15.700000000000001 0.0 L 0.6 0.0 L 0.5999999999999999 1.1e-16 Z " stroke="#191919" stroke-width="0.7 px" style="stroke-width:0.7;stroke-miterlimit:4;stroke-dasharray:none;stroke-linecap:square;fill:#727980;fill-opacity:1.0;fill-rule: evenodd"/>
<path id="Fillet002_f0054"  d="M 30.8 -9.611684396980708 A 0.8 0.8 0 0 1 30.7529 -9.34135L 30.75294117647059 -9.341352037143622 A 0.8 0.8 0 0 0 30.8 -9.61168L 30.8 -9.611684396980708 Z " stroke="#191919" stroke-width="0.7 px" style="stroke-width:0.7;stroke-miterlimit:4;stroke-dasharray:none;stroke-linecap:square;fill:#727980;fill-opacity:1.0;fill-rule: evenodd"/>
<path id="Fillet002_f0055"  d="M 0.6 0.0 A 0.6 0.6 0 0 1 -1.11022e-16 -0.6L 0.0 -0.6 A 0.6 0.6 0 0 0 0.6 1.11022e-16L 0.5999999999999999 1.1e-16 Z " stroke="#191919" stroke-width="0.7 px" style="stroke-width:0.7;stroke-miterlimit:4;stroke-dasharray:none;stroke-linecap:square;fill:#727980;fill-opacity:1.0;fill-rule: evenodd"/>
<path id="Fillet002_f0056"  d="M 30.8 -9.611684396980708 L 30.8 -9.7 L 30.8 -9.7 L 30.8 -9.611684396980708 L 30.8 -9.611684396980708 Z " stroke="#191919" stroke-width="0.7 px" style="stroke-width:0.7;stroke-miterlimit:4;stroke-dasharray:none;stroke-linecap:square;fill:#727980;fill-opacity:1.0;fill-rule: evenodd"/>
<path id="Fillet002_f0057"  d="M 0.0 -7.240060792520203 L 0.0 -0.6 L 0.0 -0.6 L 0.0 -7.240060792520203 L 0.0 -7.240060792520203 Z " stroke="#191919" stroke-width="0.7 px" style="stroke-width:0.7;stroke-miterlimit:4;stroke-dasharray:none;stroke-linecap:square;fill:#727980;fill-opacity:1.0;fill-rule: evenodd"/>
<path id="Fillet002_f0058"  d="M 30.0 -10.5 A 0.8 0.8 0 0 1 30.8 -9.7L 30.8 -9.7 A 0.8 0.8 0 0 0 30 -10.5L 30.0 -10.5 Z " stroke="#191919" stroke-width="0.7 px" style="stroke-width:0.7;stroke-miterlimit:4;stroke-dasharray:none;stroke-linecap:square;fill:#727980;fill-opacity:1.0;fill-rule: evenodd"/>
<path id="Fillet002_f0059"  d="M 0.0 -7.240060792520203 A 0.6 0.6 0 0 1 0.189635 -7.67778L 0.189635322671202 -7.677783115004254 A 0.6 0.6 0 0 0 0 -7.24006L 0.0 -7.240060792520203 Z " stroke="#191919" stroke-width="0.7 px" style="stroke-width:0.7;stroke-miterlimit:4;stroke-dasharray:none;stroke-linecap:square;fill:#727980;fill-opacity:1.0;fill-rule: evenodd"/>
<path id="Fillet002_f0060"  d="M 30.0 -10.5 L 28.900000000000002 -10.5 L 28.900000000000002 -10.5 L 30.0 -10.5 L 30.0 -10.5 Z " stroke="#191919" stroke-width="0.7 px" style="stroke-width:0.7;stroke-miterlimit:4;stroke-dasharray:none;stroke-linecap:square;fill:#727980;fill-opacity:1.0;fill-rule: evenodd"/>
<path id="Fillet002_f0061"  d="M 4.626903810649655 -11.837722322484051 L 0.18963532267120353 -7.677783115004253 L 0.189635322671202 -7.677783115004254 L 4.626903810649655 -11.837722322484051 L 4.626903810649655 -11.837722322484051 Z " stroke="#191919" stroke-width="0.7 px" style="stroke-width:0.7;stroke-miterlimit:4;stroke-dasharray:none;stroke-linecap:square;fill:#727980;fill-opacity:1.0;fill-rule: evenodd"/>
<path id="Fillet002_f0062"  d="M 28.3 -11.1 A 0.6 0.6 0 0 0 28.9 -10.5L 28.900000000000002 -10.5 A 0.6 0.6 0 0 1 28.3 -11.1L 28.3 -11.1 Z " stroke="#191919" stroke-width="0.7 px" style="stroke-width:0.7;stroke-miterlimit:4;stroke-dasharray:none;stroke-linecap:square;fill:#727980;fill-opacity:1.0;fill-rule: evenodd"/>
<path id="Fillet002_f0063"  d="M 4.626903810649655 -11.837722322484051 A 0.6 0.6 0 0 1 5.03727 -12L 5.037268487978453 -12.0 A 0.6 0.6 0 0 0 4.6269 -11.8377L 4.626903810649655 -11.837722322484051 Z " stroke="#191919" stroke-width="0.7 px" style="stroke-width:0.7;stroke-miterlimit:4;stroke-dasharray:none;stroke-linecap:square;fill:#727980;fill-opacity:1.0;fill-rule: evenodd"/>
<path id="Fillet002_f0064"  d="M 28.3 -11.1 L 28.3 -11.4 L 28.3 -11.4 L 28.3 -11.1 L 28.3 -11.1 Z " stroke="#191919" stroke-width="0.7 px" style="stroke-width:0.7;stroke-miterlimit:4;stroke-dasharray:none;stroke-linecap:square;fill:#727980;fill-opacity:1.0;fill-rule: evenodd"/>
<path id="Fillet002_f0065"  d="M 15.7 -12.0 L 5.037268487978453 -12.0 L 5.037268487978453 -12.0 L 15.700000000000001 -12.0 L 15.700000000000001 -12.0 Z " stroke="#191919" stroke-width="0.7 px" style="stroke-width:0.7;stroke-miterlimit:4;stroke-dasharray:none;stroke-linecap:square;fill:#727980;fill-opacity:1.0;fill-rule: evenodd"/>
<path id="Fillet002_f0066"  d="M 27.7 -12.0 A 0.6 0.6 0 0 1 28.3 -11.4L 28.3 -11.4 A 0.6 0.6 0 0 0 27.7 -12L 27.7 -12.0 Z " stroke="#191919" stroke-width="0.7 px" style="stroke-width:0.7;stroke-miterlimit:4;stroke-dasharray:none;stroke-linecap:square;fill:#727980;fill-opacity:1.0;fill-rule: evenodd"/>
<path id="Fillet002_f0067"  d="M 15.700000000000001 -12.0 A 0.6 0.6 0 0 1 16.3 -11.4L 16.3 -11.4 A 0.6 0.6 0 0 0 15.7 -12L 15.700000000000001 -12.0 Z " stroke="#191919" stroke-width="0.7 px" style="stroke-width:0.7;stroke-miterlimit:4;stroke-dasharray:none;stroke-linecap:square;fill:#727980;fill-opacity:1.0;fill-rule: evenodd"/>
<path id="Fillet002_f0068"  d="M 27.7 -12.0 L 23.900000000000002 -12.0 L 23.900000000000002 -12.0 L 27.7 -12.0 L 27.7 -12.0 Z " stroke="#191919" stroke-width="0.7 px" style="stroke-width:0.7;stroke-miterlimit:4;stroke-dasharray:none;stroke-linecap:square;fill:#727980;fill-opacity:1.0;fill-rule: evenodd"/>
<path id="Fillet002_f0069"  d="M 16.3 -11.1 L 16.3 -11.4 L 16.3 -11.4 L 16.3 -11.1 L 16.3 -11.1 Z " stroke="#191919" stroke-width="0.7 px" style="stroke-width:0.7;stroke-miterlimit:4;stroke-dasharray:none;stroke-linecap:square;fill:#727980;fill-opacity:1.0;fill-rule: evenodd"/>
<path id="Fillet002_f0070"  d="M 23.3 -11.4 A 0.6 0.6 0 0 1 23.9 -12L 23.900000000000002 -12.0 A 0.6 0.6 0 0 0 23.3 -11.4L 23.3 -11.4 Z " stroke="#191919" stroke-width="0.7 px" style="stroke-width:0.7;stroke-miterlimit:4;stroke-dasharray:none;stroke-linecap:square;fill:#727980;fill-opacity:1.0;fill-rule: evenodd"/>
<path id="Fillet002_f0071"  d="M 16.3 -11.1 A 0.6 0.6 0 0 0 16.9 -10.5L 16.900000000000002 -10.5 A 0.6 0.6 0 0 1 16.3 -11.1L 16.3 -11.1 Z " stroke="#191919" stroke-width="0.7 px" style="stroke-width:0.7;stroke-miterlimit:4;stroke-dasharray:none;stroke-linecap:square;fill:#727980;fill-opacity:1.0;fill-rule: evenodd"/>
<path id="Fillet002_f0072"  d="M 23.3 -11.4 L 23.3 -11.1 L 23.3 -11.1 L 23.3 -11.4 L 23.3 -11.4 Z " stroke="#191919" stroke-width="0.7 px" style="stroke-width:0.7;stroke-miterlimit:4;stroke-dasharray:none;stroke-linecap:square;fill:#727980;fill-opacity:1.0;fill-rule: evenodd"/>
<path id="Fillet002_f0073"  d="M 22.7 -10.5 L 16.900000000000002 -10.5 L 16.900000000000002 -10.5 L 22.7 -10.5 L 22.7 -10.5 Z " stroke="#191919" stroke-width="0.7 px" style="stroke-width:0.7;stroke-miterlimit:4;stroke-dasharray:none;stroke-linecap:square;fill:#727980;fill-opacity:1.0;fill-rule: evenodd"/>
<path id="Fillet002_f0074"  d="M 22.7 -10.5 A 0.6 0.6 0 0 0 23.3 -11.1L 23.3 -11.1 A 0.6 0.6 0 0 1 22.7 -10.5L 22.7 -10.5 Z " stroke="#191919" stroke-width="0.7 px" style="stroke-width:0.7;stroke-miterlimit:4;stroke-dasharray:none;stroke-linecap:square;fill:#727980;fill-opacity:1.0;fill-rule: evenodd"/>
<circle cx="2.5" cy="-2.0" r="1.25" stroke="#191919" stroke-width="0.7 px" style="stroke-width:0.7;stroke-miterlimit:4;stroke-dasharray:none;stroke-linecap:square;fill:#727980"/>
<circle cx="45.999999999999986" cy="-10.0" r="1.25" stroke="#191919" stroke-width="0.7 px" style="stroke-width:0.7;stroke-miterlimit:4;stroke-dasharray:none;stroke-linecap:square;fill:#727980"/>
<circle cx="2.5" cy="-2.0" r="1.25" stroke="#191919" stroke-width="0.7 px" style="stroke-width:0.7;stroke-miterlimit:4;stroke-dasharray:none;stroke-linecap:square;fill:#727980"/>
<title>b'Fillet002'</title>
</g>
</svg>